# xmcd
# 
# Track frame offsets:
#     150
#     15922
#     34624
#     50493
#     61919
#     76214
#     99916
#     113901
#     132352
#     149641
#     161978
#     178852
#     197891
#     212854
#     235748
#     250473
#     264369
#     280899
#     299774
# 
# Disc length: 4260
# 
# Revision: 2
# Processed by: cddbd v1.5.2PL0 Copyright (c) Steve Scherf et al.
# Submitted via: fre:ac v1.0.17
# 
DISCID=1f10a213
DTITLE=Warratahs - 25 Year Collection
DYEAR=2014
DGENRE=Country
TTITLE0=Maureen
TTITLE1=Big Sky
TTITLE2=Before This Night is Through
TTITLE3=East of Mt Eden
TTITLE4=Hands of my Heart
TTITLE5=Cape Turnagain (with Sam Hunt)
TTITLE6=Drivin' Wheel
TTITLE7=St Peter's Rendezvous
TTITLE8=Westland Moon
TTITLE9=High and Dry
TTITLE10=Taranaki
TTITLE11=Rescue Me (with Caroline Easther)
TTITLE12=Bruno's Last Ride
TTITLE13=Holy Morning
TTITLE14=Fools Paradise
TTITLE15=Down your Street
TTITLE16=Only Game in Town
TTITLE17=Black Eyed Girl
TTITLE18=Letter to America
EXTD=
EXTT0=
EXTT1=
EXTT2=
EXTT3=
EXTT4=
EXTT5=
EXTT6=
EXTT7=
EXTT8=
EXTT9=
EXTT10=
EXTT11=
EXTT12=
EXTT13=
EXTT14=
EXTT15=
EXTT16=
EXTT17=
EXTT18=
PLAYORDER=
